<svg width="31" height="24" viewBox="0 0 31 24" fill="none" xmlns="http://www.w3.org/2000/svg">
<rect width="31" height="24" fill="#1E1E1E"/>
<g id="iPhone 14 &#38; 15 Pro Max - 2" clip-path="url(#clip0_0_1)">
<rect width="430" height="932" transform="translate(-88 -223)" fill="#FFFDF4"/>
<g id="Group 49">
<g id="Mandala_logo_100x100_b6adad 3" clip-path="url(#clip1_0_1)">
<path id="Vector" d="M263.282 588.501L38.4877 228.835L398.253 3.87917L623.137 363.689L263.282 588.501Z" stroke="#EFEFEF" stroke-width="2" stroke-miterlimit="10" stroke-linecap="round" stroke-linejoin="round"/>
<path id="Vector_2" d="M38.4877 228.835L489.661 550.553L585.044 137.4L38.4877 228.835Z" stroke="#EFEFEF" stroke-width="2" stroke-miterlimit="10" stroke-linecap="round" stroke-linejoin="round"/>
</g>
</g>
<path id="Polygon 1" d="M1.72626 13.8691C0.00810981 13.2153 0.0081048 10.7846 1.72626 10.1307L27.5309 0.309937C28.8399 -0.188234 30.2423 0.778576 30.2423 2.17914V21.8207C30.2423 23.2213 28.8399 24.1881 27.5309 23.6899L1.72626 13.8691Z" fill="url(#paint0_linear_0_1)"/>
</g>
<defs>
<linearGradient id="paint0_linear_0_1" x1="-3.18518" y1="11.9999" x2="41.3848" y2="11.9999" gradientUnits="userSpaceOnUse">
<stop stop-color="#5B5A8F"/>
<stop offset="1" stop-color="#D11DB4" stop-opacity="0.23"/>
</linearGradient>
<clipPath id="clip0_0_1">
<rect width="430" height="932" fill="white" transform="translate(-88 -223)"/>
</clipPath>
<clipPath id="clip1_0_1">
<rect width="600" height="600" fill="white" transform="translate(106 -63.5927) rotate(13)"/>
</clipPath>
</defs>
</svg>
