<svg width="371" height="720" viewBox="0 0 371 720" fill="none" xmlns="http://www.w3.org/2000/svg">
<g clip-path="url(#clip0_59_167)">
<path d="M614.044 201.4L200.892 106.017L105.508 519.169L518.661 614.553L614.044 201.4Z" stroke="#EFEFEF" stroke-width="2" stroke-miterlimit="10" stroke-linecap="round" stroke-linejoin="round"/>
<path d="M518.661 614.553L312.329 566.733L105.508 519.169L200.892 106.017L614.044 201.4L518.661 614.553Z" stroke="#EFEFEF" stroke-width="2" stroke-miterlimit="10" stroke-linecap="round" stroke-linejoin="round"/>
<path d="M292.282 652.501L67.4877 292.835L427.253 67.8792L652.137 427.689L292.282 652.501Z" stroke="#EFEFEF" stroke-width="2" stroke-miterlimit="10" stroke-linecap="round" stroke-linejoin="round"/>
<path d="M427.253 67.8792L105.508 519.169L518.661 614.553L427.253 67.8792Z" stroke="#EFEFEF" stroke-width="2" stroke-miterlimit="10" stroke-linecap="round" stroke-linejoin="round"/>
<path d="M652.137 427.689L200.892 106.017L105.508 519.169L652.137 427.689Z" stroke="#EFEFEF" stroke-width="2" stroke-miterlimit="10" stroke-linecap="round" stroke-linejoin="round"/>
<path d="M67.4877 292.835L518.661 614.553L614.044 201.4L67.4877 292.835Z" stroke="#EFEFEF" stroke-width="2" stroke-miterlimit="10" stroke-linecap="round" stroke-linejoin="round"/>
<path d="M292.282 652.501L614.044 201.4L200.892 106.017L292.282 652.501Z" stroke="#EFEFEF" stroke-width="2" stroke-miterlimit="10" stroke-linecap="round" stroke-linejoin="round"/>
</g>
<defs>
<clipPath id="clip0_59_167">
<rect width="600" height="600" fill="white" transform="translate(135 0.407349) rotate(13)"/>
</clipPath>
</defs>
</svg>
