<svg width="430" height="395" viewBox="0 0 430 395" fill="none" xmlns="http://www.w3.org/2000/svg">
<g clip-path="url(#clip0_67_1218)">
<path d="M602.977 521.598L376.48 129.294L-15.8245 355.791L210.672 748.095L602.977 521.598Z" stroke="#EFEFEF" stroke-width="2.6" stroke-miterlimit="10" stroke-linecap="round" stroke-linejoin="round"/>
<path d="M210.673 748.095L97.7027 552.041L-15.8245 355.791L376.48 129.294L602.977 521.598L210.673 748.095Z" stroke="#EFEFEF" stroke-width="2.6" stroke-miterlimit="10" stroke-linecap="round" stroke-linejoin="round"/>
<path d="M16.0819 598.87L133.314 161.178L571.204 278.37L453.925 716.236L16.0819 598.87Z" stroke="#EFEFEF" stroke-width="2.6" stroke-miterlimit="10" stroke-linecap="round" stroke-linejoin="round"/>
<path d="M571.204 278.369L-15.8247 355.791L210.672 748.095L571.204 278.369Z" stroke="#EFEFEF" stroke-width="2.6" stroke-miterlimit="10" stroke-linecap="round" stroke-linejoin="round"/>
<path d="M453.925 716.235L376.48 129.294L-15.8245 355.791L453.925 716.235Z" stroke="#EFEFEF" stroke-width="2.6" stroke-miterlimit="10" stroke-linecap="round" stroke-linejoin="round"/>
<path d="M133.315 161.178L210.672 748.095L602.977 521.598L133.315 161.178Z" stroke="#EFEFEF" stroke-width="2.6" stroke-miterlimit="10" stroke-linecap="round" stroke-linejoin="round"/>
<path d="M16.0808 598.87L602.977 521.598L376.48 129.294L16.0808 598.87Z" stroke="#EFEFEF" stroke-width="2.6" stroke-miterlimit="10" stroke-linecap="round" stroke-linejoin="round"/>
</g>
<defs>
<clipPath id="clip0_67_1218">
<rect width="641" height="641" fill="white" transform="translate(410.986 0.864014) rotate(60)"/>
</clipPath>
</defs>
</svg>
