<svg width="555" height="285" viewBox="0 0 555 285" fill="none" xmlns="http://www.w3.org/2000/svg">
<path d="M421.702 57.8023C409.117 57.8023 396.943 59.5481 385.403 62.8024C355.729 24.5946 309.351 0 257.224 0C179.907 0 115.235 54.0944 98.9708 126.496C96.8452 126.051 94.6423 125.814 92.3848 125.814C74.7384 125.814 60.4342 140.118 60.4342 157.765C60.4342 159.957 60.6557 162.097 61.0759 164.166C29.9903 172.155 6.09019 198.047 1.00741 230.196C0.348111 234.37 0 238.65 0 243.01C0 258.258 4.19316 272.525 11.4877 284.725H516.586C531.483 269.628 542.802 250.993 549.174 230.196C552.961 217.833 555 204.707 555 191.104C555 117.484 495.32 57.804 421.7 57.804L421.702 57.8023Z" fill="#B3A2BC"/>
<path d="M425.603 232.194H130.906C125.459 232.194 121.044 236.609 121.044 242.055C121.044 247.501 125.459 251.916 130.906 251.916H425.603C431.049 251.916 435.464 247.501 435.464 242.055C435.464 236.609 431.049 232.194 425.603 232.194Z" fill="#32505A"/>
<mask id="mask0_2039_514" style="mask-type:luminance" maskUnits="userSpaceOnUse" x="0" y="0" width="555" height="285">
<path d="M421.702 57.8023C409.117 57.8023 396.943 59.5481 385.403 62.8024C355.729 24.5946 309.351 0 257.224 0C179.907 0 115.235 54.0944 98.9708 126.496C96.8452 126.051 94.6423 125.814 92.3848 125.814C74.7384 125.814 60.4342 140.118 60.4342 157.765C60.4342 159.957 60.6557 162.097 61.0759 164.166C29.9903 172.155 6.09019 198.047 1.00741 230.196C0.348111 234.37 0 238.65 0 243.01C0 258.258 4.19316 272.525 11.4877 284.725H516.586C531.483 269.628 542.802 250.993 549.174 230.196C552.961 217.833 555 204.707 555 191.104C555 117.484 495.32 57.804 421.7 57.804L421.702 57.8023Z" fill="white"/>
</mask>
<g mask="url(#mask0_2039_514)">
<path d="M365.176 120.814C365.176 120.814 395.129 127.228 405.615 110.464C416.1 93.6999 429.566 77.8696 450.366 75.7634C471.167 73.6572 479.592 38.4329 479.592 38.4329L404.011 17.5814L316.523 -1.91989C316.523 -1.91989 262.077 -16.036 267.293 21.3227C272.51 58.6831 278.762 66.8725 290.611 72.7218C302.461 78.5711 303.63 119.856 306.672 123.198C309.714 126.54 327.029 111.51 327.029 111.51L365.174 120.814H365.176Z" fill="#283942"/>
<path d="M333.22 4.14021L239.423 -17.4058L146.889 15.6349C146.889 15.6349 119.967 51.4991 140.117 80.0917C142.4 83.332 148.477 95.7778 163.303 102.415C177.092 108.588 189.74 106.223 194.039 105.217C206.576 101.385 220.168 104.697 229.201 113.832C239.163 123.905 241.923 139.38 236.058 152.687C238.156 151.627 241.173 149.844 244.149 146.959C252.973 138.407 254.933 126.953 255.195 122.781C256.572 100.934 265.271 80.2095 276.174 77.4317C287.076 74.6538 333.619 36.2332 333.218 4.14021H333.22Z" fill="#FFE6B7"/>
<path d="M305.311 98.461C305.311 98.461 315.106 93.6349 313.307 80.9165C311.509 68.1981 322.738 49.4775 337.246 48.8533C351.754 48.231 391.064 23.116 390.284 -1.21841L286.068 -21.822L194.369 -3.23499L172.174 -2.15374C172.174 -2.15374 162.287 43.6176 202.346 59.5745C242.405 75.5313 235.188 91.8556 238.977 103.818C242.765 115.78 254.404 143.155 264.004 146.469L305.311 98.461Z" fill="#523B32"/>
<path d="M300.216 110.256C300.216 110.256 314.911 103.194 317.968 96.07C321.025 88.946 314.831 71.4244 321.516 64.587C328.2 57.7479 347.137 57.8621 352.644 41.5818" stroke="#B48994" stroke-width="3" stroke-miterlimit="10"/>
<path d="M289.495 99.7268C289.495 99.7268 312.289 105.159 324.768 81.7657C337.248 58.3719 339.765 66.8408 351.923 58.5512C364.079 50.2598 372.055 32.478 372.055 32.478" stroke="#B48994" stroke-width="3" stroke-miterlimit="10"/>
<path d="M275.88 139.8C275.88 139.8 247.604 120.615 249.06 93.8616C250.515 67.1081 244.589 64.6853 222.438 52.9498C200.287 41.2142 189.991 21.4985 194.672 0.00170898" stroke="#D7AAA6" stroke-width="3" stroke-miterlimit="10"/>
<path d="M278.253 134.183C278.253 134.183 249.267 105.471 244.276 81.764C239.284 58.0572 228.676 52.7547 223.06 47.1392C217.445 41.5237 198.487 23.5028 205.277 -2.77783" stroke="#D7AAA6" stroke-width="3" stroke-miterlimit="10"/>
</g>
<path d="M406.485 184.833C411.197 186.37 414.857 188.917 416.499 190.187C416.538 190.046 416.575 189.907 416.614 189.765C417.596 186.155 418.806 182.108 420.272 177.772C418.374 177.357 413.889 176.158 409.527 173.375C403.792 169.715 400.448 164.706 400.448 164.706C400.448 164.706 406.401 165.629 412.136 169.288C416.353 171.979 419.277 175.399 420.529 177.022C421.76 173.432 423.168 169.655 424.771 165.77C423.003 164.855 419.035 162.559 415.58 158.807C410.972 153.804 409.02 148.104 409.02 148.104C409.02 148.104 414.539 150.518 419.147 155.523C422.366 159.02 424.288 162.853 425.155 164.847C426.777 160.975 428.595 157.007 430.626 153.018C429.023 151.849 425.443 148.972 422.593 144.728C418.803 139.079 417.742 133.149 417.742 133.149C417.742 133.149 422.829 136.377 426.619 142.026C429.232 145.918 430.547 149.943 431.113 152.07C432.5 149.389 433.982 146.704 435.57 144.037C434.52 142.335 432.31 138.334 431.282 133.35C429.907 126.686 431.167 120.796 431.167 120.796C431.167 120.796 434.656 125.707 436.031 132.37C436.866 136.419 436.728 140.18 436.491 142.509C437.625 140.655 438.81 138.81 440.048 136.985C440.69 134.733 441.954 131.182 444.232 127.722C447.975 122.041 453.033 118.769 453.033 118.769C453.033 118.769 452.024 124.708 448.281 130.389C446.026 133.812 443.295 136.358 441.479 137.842C440.197 139.728 438.974 141.636 437.804 143.556C439.87 142.766 443.884 141.486 448.543 141.323C455.342 141.085 460.938 143.315 460.938 143.315C460.938 143.315 455.511 145.931 448.714 146.168C443.55 146.349 439.084 145.108 437.231 144.5C435.63 147.174 434.135 149.867 432.738 152.557C434.773 152.378 439.276 152.206 444.123 153.484C450.7 155.219 455.414 158.971 455.414 158.971C455.414 158.971 449.463 159.908 442.886 158.173C437.887 156.854 433.968 154.373 432.374 153.257C430.273 157.346 428.4 161.42 426.735 165.39C428.776 165.031 433.207 164.481 438.098 165.319C444.804 166.468 449.83 169.789 449.83 169.789C449.83 169.789 443.986 171.248 437.281 170.1C432.231 169.235 428.133 167.139 426.419 166.156C424.792 170.079 423.368 173.892 422.127 177.512C424.181 177.08 428.551 176.39 433.42 177.045C440.162 177.95 445.305 181.086 445.305 181.086C445.305 181.086 439.517 182.755 432.774 181.849C427.762 181.176 423.634 179.27 421.846 178.337C420.399 182.613 419.205 186.607 418.235 190.169C418.185 190.347 418.138 190.524 418.09 190.702C419.446 190.536 424.625 190.056 430.273 191.546C436.85 193.281 441.563 197.033 441.563 197.033C441.563 197.033 435.612 197.97 429.035 196.235C423.386 194.744 419.116 191.769 418.02 190.958C414.096 205.586 412.981 216.056 412.971 216.161L411.313 215.989C411.323 215.884 412.424 205.528 416.278 191.02C414.226 191.081 409.734 190.992 404.984 189.441C398.515 187.331 394.025 183.318 394.025 183.318C394.025 183.318 400.02 182.722 406.487 184.831L406.485 184.833Z" fill="#9BCBC8"/>
<path d="M470.574 217.543C479.458 217.543 486.951 223.501 489.274 231.641H451.873C454.195 223.503 461.689 217.543 470.573 217.543H470.574Z" fill="#9BCBC8"/>
<path d="M379.424 210.873C392.511 210.873 403.549 219.651 406.972 231.64H351.877C355.299 219.649 366.336 210.873 379.426 210.873H379.424Z" fill="#9BCBC8"/>
<path d="M464.917 231.64C460.692 217.023 443.953 206.106 423.945 206.106C403.937 206.106 387.196 217.024 382.973 231.64H464.918H464.917Z" fill="#9BCBC8"/>
<path d="M172.621 57.1448C181.999 57.1448 189.909 63.4354 192.36 72.0257H152.881C155.333 63.4336 163.241 57.1448 172.619 57.1448H172.621Z" fill="#9BCBC8"/>
<path d="M76.4088 50.1052C90.2243 50.1052 101.875 59.3706 105.487 72.0274H47.331C50.9422 59.3724 62.5934 50.1052 76.4088 50.1052Z" fill="#9BCBC8"/>
<path d="M166.65 72.0274C162.192 56.598 144.523 45.0752 123.402 45.0752C102.282 45.0752 84.6123 56.5998 80.1537 72.0274H166.65Z" fill="#9BCBC8"/>
<path d="M253.678 20.4065C255.872 20.4065 257.724 21.8781 258.297 23.8876H249.06C249.633 21.8781 251.484 20.4065 253.678 20.4065Z" fill="#D3D2D9"/>
<path d="M231.167 18.7593C234.398 18.7593 237.125 20.9271 237.971 23.8878H224.365C225.21 20.9271 227.936 18.7593 231.169 18.7593H231.167Z" fill="#D3D2D9"/>
<path d="M252.28 23.8877C251.238 20.2783 247.103 17.5813 242.162 17.5813C237.222 17.5813 233.087 20.2783 232.044 23.8877H252.282H252.28Z" fill="#D3D2D9"/>
<path d="M154.212 70.0513C158.356 70.0513 161.851 72.8309 162.934 76.6267H145.488C146.571 72.8309 150.066 70.0513 154.21 70.0513H154.212Z" fill="#32505A"/>
<path d="M111.697 66.9412C117.801 66.9412 122.95 71.0359 124.545 76.6285H98.8463C100.443 71.0359 105.591 66.9412 111.695 66.9412H111.697Z" fill="#32505A"/>
<path d="M151.573 76.6284C149.602 69.8103 141.794 64.7188 132.462 64.7188C123.13 64.7188 115.322 69.8103 113.351 76.6284H151.573Z" fill="#32505A"/>
<path d="M429.204 103.563C432.184 103.563 434.698 105.562 435.477 108.292H422.929C423.708 105.562 426.222 103.563 429.202 103.563H429.204Z" fill="#32505A"/>
<path d="M398.624 101.325C403.014 101.325 406.717 104.27 407.865 108.292H389.382C390.53 104.27 394.233 101.325 398.623 101.325H398.624Z" fill="#32505A"/>
<path d="M427.305 108.292C425.888 103.389 420.272 99.7268 413.56 99.7268C406.847 99.7268 401.232 103.389 399.815 108.292H427.305Z" fill="#32505A"/>
<path d="M124.671 171.849C123.191 176.151 118.882 178.569 118.882 178.569C118.882 178.569 116.973 174.012 118.451 169.71C119.93 165.407 124.241 162.99 124.241 162.99C124.241 162.99 126.15 167.547 124.671 171.849Z" fill="#32505A"/>
<path d="M135.35 189.367C133.177 193.364 128.527 195.034 128.527 195.034C128.527 195.034 127.398 190.224 129.571 186.227C131.744 182.231 136.395 180.561 136.395 180.561C136.395 180.561 137.523 185.371 135.35 189.367Z" fill="#32505A"/>
<path d="M105.731 160.629C109.1 163.686 109.622 168.599 109.622 168.599C109.622 168.599 104.681 168.556 101.313 165.499C97.9443 162.442 97.4221 157.529 97.4221 157.529C97.4221 157.529 102.362 157.571 105.731 160.629Z" fill="#32505A"/>
<path d="M110.668 175.97C115.209 175.703 119.082 178.771 119.082 178.771C119.082 178.771 115.594 182.27 111.053 182.537C106.512 182.804 102.638 179.736 102.638 179.736C102.638 179.736 106.127 176.238 110.668 175.97Z" fill="#32505A"/>
<path d="M120.067 192.131C124.608 191.864 128.481 194.932 128.481 194.932C128.481 194.932 124.993 198.43 120.452 198.698C115.911 198.965 112.037 195.897 112.037 195.897C112.037 195.897 115.526 192.398 120.067 192.131Z" fill="#32505A"/>
<path d="M139.51 230.23L138.589 230.334C138.577 230.226 137.339 219.507 132.806 206.351C130.146 198.633 126.89 191.6 123.126 185.445C118.43 177.765 112.925 171.443 106.768 166.652L107.338 165.921C113.586 170.782 119.167 177.192 123.924 184.972C127.724 191.185 131.01 198.284 133.691 206.069C138.253 219.319 139.5 230.123 139.51 230.23Z" fill="#32505A"/>
<path d="M89.3892 196.024C89.7813 199.7 87.443 202.963 87.443 202.963C87.443 202.963 84.4682 200.268 84.0744 196.591C83.6823 192.915 86.0206 189.652 86.0206 189.652C86.0206 189.652 88.9954 192.347 89.3892 196.024Z" fill="#32505A"/>
<path d="M103.282 205.236C103.061 208.927 100.212 211.757 100.212 211.757C100.212 211.757 97.7246 208.605 97.9478 204.916C98.1694 201.226 101.018 198.395 101.018 198.395C101.018 198.395 103.505 201.548 103.282 205.236Z" fill="#32505A"/>
<path d="M71.5846 194.29C75.1167 195.378 77.193 198.815 77.193 198.815C77.193 198.815 73.5414 200.486 70.0093 199.397C66.4772 198.309 64.4008 194.872 64.4008 194.872C64.4008 194.872 68.0525 193.202 71.5846 194.29Z" fill="#32505A"/>
<path d="M80.5018 203.879C83.7526 202.119 87.6592 203.04 87.6592 203.04C87.6592 203.04 86.2966 206.817 83.0458 208.577C79.795 210.337 75.8885 209.415 75.8885 209.415C75.8885 209.415 77.251 205.639 80.5018 203.879Z" fill="#32505A"/>
<path d="M92.9864 212.536C96.2372 210.776 100.144 211.698 100.144 211.698C100.144 211.698 98.7812 215.474 95.5304 217.234C92.2796 218.994 88.373 218.073 88.373 218.073C88.373 218.073 89.7356 214.296 92.9864 212.536Z" fill="#32505A"/>
<path d="M120.42 233.876L119.779 234.27C119.733 234.196 115.13 226.733 107.261 218.612C102.646 213.848 97.8247 209.793 92.9354 206.562C86.8329 202.529 80.6055 199.77 74.4239 198.367L74.5909 197.632C80.864 199.058 87.1792 201.852 93.3608 205.94C98.2977 209.204 103.161 213.296 107.816 218.102C115.738 226.281 120.376 233.804 120.422 233.878L120.42 233.876Z" fill="#32505A"/>
<path d="M94.894 228.632C87.2425 228.632 80.7902 233.764 78.7894 240.774H111C109 233.764 102.547 228.632 94.8957 228.632H94.894Z" fill="#32505A"/>
<path d="M173.393 222.888C162.122 222.888 152.615 230.448 149.669 240.773H197.117C194.171 230.448 184.664 222.888 173.393 222.888Z" fill="#32505A"/>
<path d="M99.7658 240.773C103.403 228.185 117.82 218.783 135.052 218.783C152.283 218.783 166.7 228.185 170.337 240.773H99.7658Z" fill="#32505A"/>
<path d="M453.427 195.072C456.675 197.405 458.867 200.257 459.82 201.636C459.883 201.537 459.946 201.439 460.01 201.34C461.647 198.805 463.566 195.988 465.754 193.014C464.395 192.23 461.239 190.213 458.566 187.008C455.052 182.794 453.703 178.124 453.703 178.124C453.703 178.124 458.055 180.288 461.571 184.503C464.157 187.602 465.569 190.946 466.135 192.5C467.958 190.041 469.964 187.481 472.146 184.884C471.009 183.75 468.519 181.014 466.779 177.285C464.458 172.312 464.349 167.452 464.349 167.452C464.349 167.452 468.002 170.657 470.323 175.631C471.944 179.105 472.485 182.523 472.665 184.267C474.857 181.688 477.225 179.079 479.761 176.508C478.813 175.218 476.763 172.131 475.61 168.171C474.075 162.902 474.708 158.083 474.708 158.083C474.708 158.083 477.83 161.807 479.365 167.078C480.423 170.708 480.45 174.124 480.365 175.898C482.087 174.175 483.882 172.473 485.754 170.81C485.364 169.245 484.641 165.627 485.068 161.547C485.64 156.087 488.047 151.866 488.047 151.866C488.047 151.866 489.529 156.495 488.959 161.953C488.613 165.27 487.588 168.127 486.837 169.861C488.163 168.711 489.524 167.582 490.921 166.482C491.964 164.906 493.805 162.484 496.403 160.381C500.668 156.928 505.357 155.648 505.357 155.648C505.357 155.648 503.13 159.968 498.865 163.421C496.294 165.501 493.573 166.791 491.813 167.491C490.366 168.628 488.959 169.796 487.591 170.986C489.372 170.884 492.771 170.88 496.393 171.893C501.678 173.372 505.436 176.452 505.436 176.452C505.436 176.452 500.624 177.138 495.339 175.661C491.326 174.539 488.194 172.493 486.92 171.573C485.035 173.238 483.228 174.944 481.496 176.67C483.106 177.03 486.61 177.997 490.023 180.165C494.657 183.107 497.365 187.143 497.365 187.143C497.365 187.143 492.56 186.41 487.927 183.469C484.407 181.234 481.999 178.368 481.046 177.12C478.431 179.75 475.996 182.426 473.746 185.07C475.402 185.294 478.943 185.953 482.5 187.792C487.375 190.313 490.429 194.093 490.429 194.093C490.429 194.093 485.578 193.787 480.703 191.266C477.03 189.367 474.393 186.755 473.315 185.58C471.107 188.198 469.08 190.783 467.241 193.263C468.925 193.432 472.454 193.97 476.039 195.661C481.002 198.005 484.189 201.672 484.189 201.672C484.189 201.672 479.332 201.542 474.368 199.199C470.678 197.456 467.971 194.983 466.824 193.828C464.667 196.762 462.773 199.542 461.158 202.043C461.077 202.168 460.996 202.293 460.917 202.418C461.998 202.622 466.1 203.519 470.077 206.043C474.709 208.985 477.419 213.021 477.419 213.021C477.419 213.021 472.614 212.288 467.981 209.347C464.002 206.82 461.444 203.49 460.801 202.599C454.21 212.888 450.795 220.666 450.762 220.745L449.529 220.209C449.563 220.129 452.938 212.436 459.447 202.223C457.854 201.769 454.422 200.602 451.149 198.251C446.692 195.05 444.218 190.865 444.218 190.865C444.218 190.865 448.972 191.873 453.431 195.074L453.427 195.072Z" fill="#9BCBC8"/>
<path d="M379.545 76.1167C383.105 76.1167 386.106 78.5042 387.036 81.7638H372.054C372.984 78.5025 375.987 76.1167 379.545 76.1167Z" fill="#F8BAD0"/>
<path d="M343.028 73.4463C348.271 73.4463 352.693 76.9626 354.064 81.7658H331.993C333.364 76.9626 337.786 73.4463 343.028 73.4463Z" fill="#F8BAD0"/>
<path d="M377.279 81.7657C375.586 75.9094 368.88 71.5369 360.865 71.5369C352.849 71.5369 346.142 75.9111 344.451 81.7657H377.279Z" fill="#F8BAD0"/>
<path d="M140.63 121.261C142.082 121.261 143.306 122.235 143.686 123.564H137.576C137.956 122.235 139.18 121.261 140.632 121.261H140.63Z" fill="#F8BAD0"/>
<path d="M125.739 120.171C127.877 120.171 129.68 121.605 130.239 123.564H121.24C121.799 121.605 123.603 120.171 125.74 120.171H125.739Z" fill="#F8BAD0"/>
<path d="M139.705 123.564C139.014 121.176 136.28 119.392 133.012 119.392C129.744 119.392 127.008 121.175 126.319 123.564H139.705Z" fill="#F8BAD0"/>
<mask id="mask1_2039_514" style="mask-type:luminance" maskUnits="userSpaceOnUse" x="137" y="91" width="284" height="151">
<path d="M420.575 91.0645H137.45V241.73H420.575V91.0645Z" fill="white"/>
</mask>
<g mask="url(#mask1_2039_514)">
<path d="M211.07 172.679C211.07 172.679 239.328 146.773 319.909 163.676V306.188H226.22L211.07 172.679Z" fill="#785EAA"/>
<path d="M339.663 175.555C328.519 167.311 321.646 178.066 321.335 178.293C317.678 180.958 317.808 189.251 321.117 193.04L387.56 268.995C388.682 270.419 401.288 269.944 402.897 268.772C403.435 268.38 403.843 267.88 404.113 267.335C406.863 263.61 406.91 257.806 404.985 253.898C394.962 233.546 354.154 186.276 339.663 175.557V175.555Z" fill="#785EAA"/>
<path d="M383.288 335.176C382.77 333.928 382.261 332.689 381.76 331.46C381.108 329.876 380.473 328.309 379.849 326.764C377.611 321.213 375.556 315.883 373.645 310.756C372.569 307.855 371.532 305.033 370.543 302.257C368.91 297.658 367.393 293.211 366 288.966C365.04 285.92 364.109 283.002 363.235 280.14C362.63 278.123 362.053 276.154 361.507 274.224C352.575 242.783 351.28 221.982 353.46 207.395C355.457 194.123 350.29 180.823 339.649 172.679L335.491 169.491C316.228 154.693 288.032 165.267 283.403 189.13C281.867 197.12 280.676 206.233 280.147 216.537C279.245 234.17 279.484 252.377 281.443 271.488C281.731 274.417 282.086 277.335 282.461 280.314C283.335 287.199 284.439 294.2 285.784 301.355C286.33 304.246 286.907 307.175 287.522 310.104C288.838 316.289 290.337 322.541 292.055 328.946C292.804 331.76 293.6 334.621 294.437 337.511C294.504 337.747 294.576 337.986 294.645 338.223H384.545C384.118 337.2 383.696 336.182 383.286 335.178L383.288 335.176Z" fill="#785EAA"/>
<path d="M316.586 154.753C316.586 154.753 295.884 132.558 310.586 111.191C327.146 87.1208 357.531 90.66 365.313 107.605C372.477 123.207 363.291 132.177 360.112 133.762C356.932 135.348 316.588 154.751 316.588 154.751L316.586 154.753Z" fill="#283942"/>
<path d="M364.168 129.838C364.168 129.838 351.088 112.287 352.493 104.621C353.896 96.9558 362.231 103.528 362.231 103.528C362.231 103.528 370.853 115.223 364.168 129.838Z" fill="#283942"/>
<path d="M348.111 208.285C348.111 208.285 356.071 214.472 357.881 224.569C359.692 234.666 352.857 236.52 352.996 256.245C353.136 275.968 337.084 226.634 337.084 226.634L348.111 208.286V208.285Z" fill="#785EAA"/>
<path d="M321.845 127.024C315.837 144.823 323.366 163.436 334.243 167.107C345.121 170.778 355.227 158.116 361.234 140.319C367.242 122.521 361.48 110.487 350.603 106.816C339.725 103.145 327.851 109.226 321.843 127.025L321.845 127.024Z" fill="#E8B290"/>
<path d="M319.236 126.988L339.63 129.61C339.143 132.778 334.029 162.831 330.31 173.721C328.745 176.974 323.411 177.341 318.397 174.544C313.887 172.028 311.203 167.821 311.836 164.63L311.815 164.619C314.044 158.09 317.523 138.056 319.237 126.988H319.236Z" fill="#E8B290"/>
<path d="M364.961 113.384C364.961 113.384 347.501 131.48 323.742 125.889C311.503 123.01 318.536 105.335 318.536 105.335L337.997 96.9944C337.997 96.9944 350.079 95.9554 355.708 100.588C356.19 100.985 364.961 113.386 364.961 113.386V113.384Z" fill="#283942"/>
<path d="M312.651 127.365C311.836 131.959 315.352 138.643 318.678 139.235C322.005 139.826 323.499 136.25 324.315 131.658C325.131 127.064 323.199 122.287 319.872 121.696C316.546 121.106 313.467 122.772 312.651 127.366V127.365Z" fill="#E8B290"/>
<path d="M380.137 156.998C377.166 157.132 374.666 156.682 371.915 153.014C369.717 150.085 368.87 147.492 369.133 145.103C369.406 142.638 370.786 140.225 373.163 139.737C373.769 139.612 374.299 139.39 374.487 139.007C374.49 139.002 374.492 138.995 374.496 138.99C375.468 136.969 373.993 136.679 375.895 131.746C377.797 126.814 380.879 127.693 381.584 128.077C382.289 128.46 380.82 130.549 380.306 131.635C379.793 132.722 380.273 136.103 380.023 137.801C379.877 138.794 380.262 141.124 380.607 142.887C380.93 144.545 381.124 146.228 381.189 147.919C381.284 150.393 381.941 152.525 381.442 154.633C381.284 155.302 380.408 156.402 380.136 156.996L380.137 156.998Z" fill="#E8C1A8"/>
<path d="M377.525 184.908L388.835 182.285L379.897 154.753L368.042 158.16L377.525 184.908Z" fill="#E8C1A8"/>
<path d="M376.941 142.935C378.054 149.818 379.828 156.894 379.633 157.218L369.397 163.345C367.63 162.737 365.037 161.989 359.414 150.256L357.377 145.908L360.97 141.472C361.528 140.785 362.155 140.159 362.841 139.607L363.743 138.881C365.582 137.4 367.813 136.528 370.134 136.382L371.57 136.293C372.409 136.203 376.614 143.515 376.941 142.933V142.935Z" fill="#E8C1A8"/>
<path d="M366.561 128.52L370.06 141.695C370.338 142.74 371.408 143.385 372.454 143.139C373.5 142.893 374.123 141.846 373.845 140.802L370.346 127.627C370.069 126.582 368.998 125.937 367.952 126.183C366.906 126.429 366.283 127.475 366.561 128.52Z" fill="#E8C1A8"/>
<path d="M362.753 120.916L366.702 128.527C367.169 129.429 368.277 129.803 369.175 129.364C370.074 128.924 370.422 127.836 369.954 126.934L366.005 119.323C365.538 118.421 364.43 118.047 363.532 118.486C362.633 118.926 362.285 120.014 362.753 120.916Z" fill="#E8C1A8"/>
<path d="M360.068 116.707L362.299 120.121C363.052 121.151 364.37 121.47 365.176 120.814C365.948 120.188 365.948 118.91 365.176 117.962L361.96 114.005C361.463 113.393 360.648 113.245 360.179 113.681C359.427 114.379 359.381 115.652 360.068 116.705V116.707Z" fill="#E8C1A8"/>
<path d="M357.589 117.333L358.977 121.137C359.344 122.35 358.75 123.618 357.681 123.905C356.658 124.177 355.596 123.442 355.309 122.261L354.112 117.333C353.927 116.57 354.333 115.815 355.003 115.68C356.074 115.464 357.162 116.16 357.589 117.333Z" fill="#E8C1A8"/>
<path d="M362.074 127.693L368.233 137.993C368.79 138.924 368.5 140.153 367.586 140.735C366.672 141.317 365.478 141.034 364.921 140.102L358.762 129.803C358.205 128.871 358.495 127.642 359.409 127.06C360.323 126.479 361.517 126.762 362.074 127.693Z" fill="#E8C1A8"/>
<path d="M359.175 121.556L362.176 128.184C362.616 129.154 362.201 130.317 361.25 130.779C360.299 131.241 359.172 130.828 358.732 129.858L355.731 123.23C355.291 122.259 355.706 121.097 356.658 120.635C357.609 120.172 358.736 120.585 359.175 121.556Z" fill="#E8C1A8"/>
<path d="M352.916 124.063L354.711 127.301C355.216 128.342 354.861 129.538 353.938 129.91C353.053 130.266 351.99 129.726 351.562 128.704L349.778 124.443C349.502 123.783 349.76 123.066 350.346 122.873C351.281 122.563 352.362 123.062 352.916 124.063Z" fill="#E8C1A8"/>
<path d="M357.651 132.189L363.291 140.248C363.954 141.196 363.855 142.43 363.07 143.005C362.284 143.58 361.109 143.278 360.446 142.33L354.806 134.271C354.143 133.323 354.242 132.089 355.028 131.514C355.814 130.939 356.988 131.241 357.651 132.189Z" fill="#E8C1A8"/>
<path d="M354.718 127.37L357.206 131.611C357.792 132.608 357.605 133.812 356.789 134.299C355.974 134.786 354.838 134.373 354.252 133.376L351.765 129.135C351.179 128.138 351.366 126.934 352.181 126.447C352.997 125.96 354.133 126.373 354.718 127.37Z" fill="#E8C1A8"/>
<path d="M351.687 133.643L353.563 136.63C354.099 137.597 353.845 138.782 353.009 139.216C352.209 139.633 351.188 139.197 350.724 138.244L348.792 134.265C348.493 133.65 348.688 132.935 349.219 132.699C350.068 132.323 351.105 132.718 351.684 133.641L351.687 133.643Z" fill="#E8C1A8"/>
<path d="M356.781 140.364L363.502 147.429C364.151 148.111 364.13 149.211 363.455 149.887C362.779 150.562 361.707 150.555 361.056 149.872L354.335 142.808C353.686 142.126 353.707 141.025 354.383 140.35C355.058 139.675 356.13 139.682 356.781 140.364Z" fill="#E8C1A8"/>
<path d="M353.407 136.301L356.661 140.322C357.25 141.05 357.145 142.137 356.427 142.75C355.708 143.364 354.65 143.272 354.061 142.544L350.807 138.524C350.218 137.796 350.323 136.709 351.04 136.096C351.759 135.482 352.818 135.573 353.407 136.301Z" fill="#E8C1A8"/>
<path d="M383.306 164.421C392.809 188.337 405.627 243.293 405.615 259.606C405.604 273.139 397.389 272.935 397.049 273.033C393.065 274.197 386.52 269.925 385.528 265.09L371.303 167.167L383.308 164.421H383.306Z" fill="#785EAA"/>
<path d="M234.135 154.753C234.135 154.753 254.837 132.558 240.135 111.191C223.575 87.1208 193.19 90.66 185.408 107.605C178.244 123.207 187.43 132.177 190.609 133.762C193.789 135.348 234.133 154.751 234.133 154.751L234.135 154.753Z" fill="#E1C0B5"/>
<path d="M228.876 127.024C234.884 144.823 227.355 163.436 216.478 167.107C205.6 170.778 195.495 158.116 189.487 140.319C183.479 122.519 189.241 110.487 200.118 106.816C210.996 103.145 222.87 109.226 228.878 127.025L228.876 127.024Z" fill="#E1C0B5"/>
<path d="M185.776 107.503C190.239 113.231 197.175 120.107 207.225 123.15C216.838 126.062 222.058 123.273 226.45 127.781C233.641 135.164 228.252 149.786 233.136 152.902C233.734 153.283 234.648 153.241 236.056 152.687C244.012 149.556 251.444 137.414 252.056 135.633C258.399 117.155 243.908 100.847 243.265 100.119C237.815 93.9652 231.779 93.7894 226.035 90.6248C222.656 90.3804 217.867 90.2116 212.146 90.6248C203.218 91.27 198.752 91.5918 195.092 94.4927C188.801 99.477 185.689 104.433 185.774 107.503H185.776Z" fill="#FFE6B7"/>
<path d="M167.433 335.176C167.952 333.928 168.46 332.689 168.961 331.46C169.613 329.876 170.248 328.309 170.872 326.764C173.11 321.213 175.165 315.883 177.076 310.756C178.152 307.855 179.19 305.033 180.178 302.257C181.811 297.658 183.328 293.211 184.721 288.966C185.681 285.92 186.612 283.002 187.486 280.14C188.091 278.123 188.668 276.154 189.214 274.224C198.146 242.783 199.442 221.982 197.261 207.395C195.264 194.123 200.431 180.823 211.072 172.679L215.23 169.491C234.494 154.693 262.689 165.267 267.318 189.13C268.855 197.12 270.045 206.233 270.574 216.537C271.476 234.17 271.237 252.377 269.278 271.488C268.99 274.417 268.635 277.335 268.26 280.314C267.387 287.199 266.282 294.2 264.937 301.355C264.391 304.246 263.814 307.175 263.199 310.104C261.884 316.289 260.384 322.541 258.666 328.946C257.917 331.76 257.121 334.621 256.284 337.511C256.217 337.747 256.145 337.986 256.076 338.223H166.176C166.603 337.2 167.025 336.182 167.435 335.178L167.433 335.176Z" fill="#785EAA"/>
<path d="M211.058 175.555C222.202 167.311 229.075 178.066 229.386 178.293C233.043 180.958 232.913 189.251 229.604 193.04L163.161 268.995C162.039 270.419 149.433 269.944 147.824 268.772C147.286 268.38 146.879 267.88 146.608 267.335C143.86 263.61 143.811 257.806 145.736 253.898C155.759 233.546 196.567 186.276 211.058 175.557V175.555Z" fill="#785EAA"/>
<path d="M231.484 126.988L211.089 129.61C211.576 132.778 216.691 162.831 220.409 173.721C221.974 176.974 227.308 177.341 232.322 174.544C236.832 172.028 239.516 167.821 238.884 164.63L238.905 164.619C236.675 158.09 233.196 138.056 231.482 126.988H231.484Z" fill="#E1C0B5"/>
<path d="M187.534 132.644C186.183 121.536 188.847 116.253 191.577 113.481C194.913 110.094 199.489 108.206 201.071 105.393C201.827 104.05 199.178 102.097 198.937 101.88C195.531 98.8072 187.787 102.825 187.787 102.825C186.19 104.168 183.803 106.603 182.435 110.316C179 119.641 186.902 131.797 187.534 132.644Z" fill="#FFE6B7"/>
<path d="M202.61 208.285C202.61 208.285 194.651 214.472 192.84 224.569C191.029 234.666 197.865 236.52 197.726 256.245C197.585 275.968 213.637 226.634 213.637 226.634L202.61 208.286V208.285Z" fill="#785EAA"/>
<path d="M238.07 127.365C238.885 131.959 235.369 138.643 232.043 139.235C228.716 139.826 227.222 136.25 226.406 131.658C225.59 127.064 227.523 122.287 230.849 121.696C234.175 121.106 237.254 122.772 238.07 127.366V127.365Z" fill="#E1C0B5"/>
<path d="M169.84 160.803C171.941 162.909 174.089 164.264 178.593 163.421C182.192 162.745 184.569 161.406 185.988 159.467C187.453 157.464 188.065 154.753 186.64 152.787C186.277 152.285 186.037 151.764 186.157 151.354C186.157 151.349 186.161 151.342 186.162 151.335C186.811 149.188 188.093 149.971 190.023 145.05C191.952 140.129 189.086 138.694 188.307 138.501C187.528 138.307 187.201 140.839 186.846 141.987C186.491 143.135 183.854 145.303 182.889 146.725C182.324 147.557 180.468 149.014 179.022 150.08C177.663 151.084 176.385 152.193 175.193 153.397C173.453 155.159 171.528 156.286 170.471 158.178C170.137 158.777 170.038 160.18 169.838 160.801L169.84 160.803Z" fill="#EBD3CF"/>
<path d="M173.087 189.165L161.779 186.542L170.715 159.011L182.572 162.417L173.087 189.165Z" fill="#EBD3CF"/>
<path d="M181.698 152.592C176.229 156.917 170.14 160.934 170.065 161.305L173.474 172.737C175.186 173.482 177.604 174.683 189.677 169.829L194.116 168L194.462 162.302C194.517 161.418 194.477 160.534 194.345 159.663L194.171 158.519C193.815 156.184 192.759 154.034 191.147 152.36L190.148 151.323C189.591 150.69 181.549 153.241 181.702 152.59L181.698 152.592Z" fill="#EBD3CF"/>
<path d="M199.088 148.976L187.607 156.328C186.699 156.91 185.471 156.662 184.868 155.774C184.263 154.887 184.511 153.695 185.42 153.113L196.901 145.76C197.81 145.178 199.037 145.426 199.64 146.314C200.245 147.202 199.997 148.394 199.088 148.976Z" fill="#EBD3CF"/>
<path d="M207.033 145.941L198.981 148.886C198.026 149.236 196.957 148.763 196.592 147.833C196.228 146.903 196.706 145.864 197.659 145.516L205.711 142.571C206.666 142.221 207.735 142.694 208.1 143.624C208.464 144.554 207.986 145.593 207.031 145.941H207.033Z" fill="#EBD3CF"/>
<path d="M211.856 144.652L207.905 145.663C206.653 145.915 205.467 145.259 205.315 144.232C205.17 143.249 206.033 142.307 207.241 142.129L212.285 141.384C213.065 141.268 213.765 141.709 213.816 142.349C213.899 143.372 213.074 144.341 211.856 144.654V144.652Z" fill="#EBD3CF"/>
<path d="M213.26 146.787L209.667 148.654C208.577 149.301 208.158 150.637 208.754 151.569C209.324 152.462 210.604 152.636 211.615 151.959L215.827 149.134C216.48 148.696 216.689 147.866 216.286 147.314C215.643 146.432 214.37 146.21 213.262 146.785L213.26 146.787Z" fill="#EBD3CF"/>
<path d="M202.954 151.399L191.456 154.832C190.415 155.143 189.8 156.244 190.079 157.292C190.361 158.34 191.431 158.937 192.472 158.626L203.97 155.193C205.011 154.881 205.627 153.781 205.347 152.733C205.066 151.685 203.995 151.087 202.954 151.399Z" fill="#EBD3CF"/>
<path d="M209.24 148.83L202.55 151.69C201.571 152.109 201.091 153.246 201.481 154.229C201.87 155.212 202.979 155.669 203.96 155.251L210.65 152.39C211.629 151.972 212.109 150.834 211.719 149.851C211.33 148.869 210.221 148.412 209.24 148.83Z" fill="#EBD3CF"/>
<path d="M212.162 154.906L208.649 156.082C207.573 156.509 207.028 157.631 207.457 158.529C207.868 159.389 209.016 159.709 210.022 159.245L214.217 157.308C214.866 157.009 215.159 156.304 214.859 155.766C214.379 154.906 213.243 154.544 212.16 154.906H212.162Z" fill="#EBD3CF"/>
<path d="M203.181 157.7L193.578 159.832C192.449 160.084 191.688 161.059 191.88 162.014C192.071 162.969 193.14 163.538 194.269 163.289L203.872 161.156C205.001 160.905 205.762 159.929 205.57 158.974C205.379 158.02 204.31 157.45 203.181 157.7Z" fill="#EBD3CF"/>
<path d="M208.6 156.128L203.9 157.575C202.794 157.914 202.119 158.929 202.392 159.839C202.664 160.75 203.781 161.212 204.886 160.871L209.586 159.424C210.692 159.085 211.367 158.071 211.094 157.16C210.822 156.249 209.705 155.787 208.6 156.128Z" fill="#EBD3CF"/>
<path d="M206.595 162.8L203.193 163.735C202.146 164.087 201.532 165.131 201.854 166.016C202.161 166.863 203.211 167.232 204.196 166.842L208.306 165.214C208.942 164.962 209.282 164.303 209.048 163.77C208.675 162.92 207.643 162.512 206.594 162.8H206.595Z" fill="#EBD3CF"/>
<path d="M198.3 164.317L188.573 164.985C187.634 165.05 186.906 165.875 186.948 166.83C186.99 167.783 187.785 168.503 188.726 168.44L198.453 167.772C199.392 167.707 200.12 166.882 200.078 165.928C200.036 164.975 199.241 164.254 198.3 164.317Z" fill="#EBD3CF"/>
<path d="M203.533 163.6L198.418 164.366C197.492 164.505 196.836 165.377 196.95 166.316C197.065 167.253 197.908 167.902 198.835 167.763L203.949 166.996C204.876 166.858 205.532 165.986 205.417 165.047C205.303 164.11 204.459 163.461 203.533 163.6Z" fill="#EBD3CF"/>
<path d="M161.886 178.075C152.383 201.991 145.092 243.293 145.106 259.607C145.117 273.139 153.333 272.935 153.672 273.033C157.656 274.197 164.201 269.925 165.193 265.09L177.057 181.995L161.886 178.076V178.075Z" fill="#785EAA"/>
<path d="M343.065 329.346C342.547 328.098 342.039 326.858 341.538 325.629C340.885 324.045 340.251 322.479 339.626 320.933C337.388 315.383 335.333 310.052 333.422 304.926C332.346 302.025 331.309 299.203 330.321 296.427C328.687 291.827 327.17 287.381 325.778 283.135C324.818 280.09 323.886 277.172 323.012 274.309C322.407 272.293 321.831 270.324 321.284 268.393C312.352 236.952 311.057 216.152 313.237 201.565C315.234 188.293 310.067 174.992 299.427 166.849L295.269 163.661C276.005 148.863 247.809 159.436 243.18 183.299C241.644 191.29 240.453 200.403 239.924 210.707C239.022 228.339 239.261 246.547 241.22 265.658C241.508 268.587 241.863 271.505 242.238 274.483C243.112 281.368 244.216 288.369 245.561 295.525C246.108 298.415 246.684 301.344 247.3 304.273C248.615 310.458 250.114 316.71 251.832 323.115C252.581 325.93 253.378 328.791 254.214 331.681C254.281 331.917 254.353 332.156 254.422 332.393H344.322C343.895 331.37 343.473 330.352 343.064 329.348L343.065 329.346Z" fill="#D7F0FC"/>
<path d="M271.274 152.702C271.274 152.702 244.279 138.831 250.874 113.749C258.304 85.4924 288.092 78.5319 301.151 91.8393C313.175 104.092 307.572 115.644 305.118 118.213C302.663 120.782 271.274 152.702 271.274 152.702Z" fill="#523B32"/>
<path d="M293.25 113.677C293.25 113.677 274.058 103.15 272.149 95.5948C270.24 88.0401 280.553 90.5525 280.553 90.5525C280.553 90.5525 293.257 97.6044 293.252 113.677H293.25Z" fill="#E1C0B5"/>
<path d="M307.888 202.454C307.888 202.454 315.848 208.641 317.658 218.738C319.469 228.835 312.634 230.69 312.773 250.415C312.913 270.137 296.861 220.804 296.861 220.804L307.888 202.456V202.454Z" fill="#D7F0FC"/>
<path d="M266.829 124.829C267.205 143.611 280.593 158.575 292.071 158.344C303.548 158.114 308.769 142.778 308.393 123.997C308.017 105.215 298.521 95.8444 287.044 96.0747C275.567 96.305 266.453 106.049 266.829 124.831V124.829Z" fill="#AC6B55"/>
<path d="M264.364 125.68L284.44 121.239C285.054 124.384 290.421 154.394 290.611 165.901C290.242 169.491 285.347 171.643 279.681 170.709C274.586 169.869 270.634 166.82 270.15 163.603L270.125 163.6C270.011 156.701 266.5 136.672 264.364 125.678V125.68Z" fill="#AC6B55"/>
<path d="M302.778 97.3933C302.778 97.3933 292.478 120.335 268.228 123.12C255.737 124.555 256.368 105.544 256.368 105.544L271.854 91.1045C271.854 91.1045 282.87 86.034 289.736 88.4866C290.325 88.6976 302.776 97.3933 302.776 97.3933H302.778Z" fill="#523B32"/>
<path d="M258.295 128.264C259.083 132.864 264.656 137.962 267.986 137.393C271.316 136.823 271.511 132.952 270.723 128.354C269.936 123.757 266.5 119.915 263.17 120.486C259.84 121.056 257.509 123.667 258.297 128.266L258.295 128.264Z" fill="#AC6B55"/>
<path d="M244.988 174.945C253.502 164.007 263.016 172.513 263.376 172.649C267.617 174.233 269.721 182.255 267.555 186.793L224.001 277.824C223.303 279.498 211.034 282.432 209.169 281.736C208.545 281.504 208.019 281.131 207.611 280.679C203.961 277.831 202.353 272.254 203.154 267.973C207.332 245.675 233.915 189.168 244.986 174.945H244.988Z" fill="#D7F0FC"/>
</g>
<path d="M212.605 91.6516C215.39 91.6516 217.737 93.5188 218.465 96.0698H206.743C207.471 93.5188 209.82 91.6516 212.603 91.6516H212.605Z" fill="#32505A"/>
<path d="M184.039 89.5613C188.14 89.5613 191.6 92.3128 192.671 96.0699H175.404C176.477 92.3128 179.935 89.5613 184.037 89.5613H184.039Z" fill="#32505A"/>
<path d="M210.833 96.0699C209.509 91.49 204.262 88.0669 197.991 88.0669C191.72 88.0669 186.474 91.4882 185.152 96.0699H210.833Z" fill="#32505A"/>
<path d="M457.388 228.681C460.966 228.681 463.981 231.081 464.917 234.356H449.86C450.795 231.079 453.812 228.681 457.388 228.681Z" fill="#6B4A9F"/>
<path d="M420.691 225.996C425.96 225.996 430.404 229.53 431.781 234.358H409.6C410.979 229.53 415.421 225.996 420.691 225.996Z" fill="#6B4A9F"/>
<path d="M455.11 234.356C453.41 228.472 446.671 224.076 438.615 224.076C430.559 224.076 423.82 228.472 422.12 234.356H455.11Z" fill="#6B4A9F"/>
<path d="M113.667 238.277C110.007 238.277 106.919 240.731 105.963 244.086H121.373C120.417 240.733 117.329 238.277 113.669 238.277H113.667Z" fill="#9BCBC8"/>
<path d="M151.223 235.529C145.831 235.529 141.282 239.146 139.872 244.086H162.572C161.162 239.146 156.613 235.529 151.221 235.529H151.223Z" fill="#9BCBC8"/>
<path d="M115.998 244.086C117.739 238.064 124.636 233.565 132.88 233.565C141.124 233.565 148.021 238.062 149.762 244.086H115.998Z" fill="#9BCBC8"/>
<path d="M293.479 238.4C296.529 238.4 299.103 240.446 299.9 243.24H287.056C287.855 240.444 290.427 238.4 293.477 238.4H293.479Z" fill="#F8BAD0"/>
<path d="M300.993 239.899C303.098 239.899 304.873 241.311 305.424 243.24H296.561C297.111 241.311 298.887 239.899 300.991 239.899H300.993Z" fill="#F8BAD0"/>
<path d="M291.443 243.242C290.58 240.258 287.162 238.029 283.078 238.029C278.994 238.029 275.574 240.258 274.713 243.242H291.445H291.443Z" fill="#F8BAD0"/>
<path d="M286.245 177.27C286.271 181.67 290.081 184.965 292.291 188.769C296.032 195.21 295.15 203.234 294.016 210.593" stroke="#557680" stroke-width="4.45" stroke-miterlimit="10"/>
<path d="M286.317 177.706C284.812 180.585 285.195 184.077 286 187.224C286.806 190.371 288.003 193.48 288.015 196.729C288.029 200.625 286.345 204.292 285.236 208.028C283.585 213.586 283.186 219.511 284.079 225.239" stroke="#557680" stroke-width="4.45" stroke-miterlimit="10"/>
<path d="M284.981 176.907C284.981 176.209 285.547 175.645 286.243 175.645C286.939 175.645 287.505 176.211 287.505 176.907C287.505 177.604 286.939 178.17 286.243 178.17C285.547 178.17 284.981 177.604 284.981 176.907Z" fill="#557680"/>
<path d="M309.526 184.408C308.58 187.214 304.501 188.372 298.163 186.238C291.825 184.103 286.575 176.675 286.575 176.675C286.575 176.675 295.25 173.94 301.588 176.076C307.926 178.21 310.472 181.602 309.526 184.408Z" stroke="#557680" stroke-width="4.45" stroke-miterlimit="10"/>
<path d="M266.139 190.334C267.789 192.792 272.03 192.838 277.582 189.109C283.135 185.381 286.246 176.833 286.246 176.833C286.246 176.833 277.159 176.478 271.606 180.205C266.054 183.933 264.489 187.874 266.14 190.332L266.139 190.334Z" stroke="#557680" stroke-width="4.45" stroke-miterlimit="10"/>
<path d="M260.166 236.746C264.911 236.746 268.915 239.928 270.154 244.276H250.176C251.418 239.928 255.419 236.746 260.164 236.746H260.166Z" fill="#E1C0B5"/>
<path d="M271.856 239.079C275.131 239.079 277.893 241.275 278.75 244.276H264.964C265.82 241.276 268.582 239.079 271.858 239.079H271.856Z" fill="#E1C0B5"/>
<path d="M256.998 244.276C255.656 239.633 250.34 236.166 243.984 236.166C237.628 236.166 232.312 239.633 230.97 244.276H256.998Z" fill="#E1C0B5"/>
<path d="M239.492 220.912C240.113 220.638 240.837 220.919 241.111 221.539C241.234 221.817 241.245 222.116 241.164 222.385C242.293 223.287 243.351 224.261 244.33 225.261C244.042 224.14 243.697 222.45 243.69 220.75C243.372 220.645 243.098 220.413 242.952 220.082C242.678 219.461 242.959 218.737 243.58 218.463C244.2 218.188 244.925 218.47 245.199 219.09C245.473 219.711 245.192 220.435 244.571 220.71C244.499 220.741 244.427 220.764 244.353 220.782C244.372 223.328 245.195 225.917 245.327 226.316C247.423 228.611 249.114 230.961 250.334 232.843C252.527 236.223 253.721 238.862 253.731 238.889L253.126 239.16C253.114 239.133 251.943 236.54 249.777 233.201C249.127 232.197 248.339 231.058 247.426 229.866C246.955 229.797 245.176 229.606 242.855 230.139C242.885 230.636 242.609 231.121 242.126 231.334C241.505 231.608 240.781 231.327 240.506 230.706C240.232 230.086 240.513 229.361 241.134 229.087C241.681 228.846 242.308 229.036 242.637 229.509C244.474 229.078 245.986 229.078 246.86 229.14C245.194 227.042 243.156 224.834 240.805 222.946C240.712 223.03 240.603 223.102 240.482 223.155C239.861 223.429 239.137 223.148 238.862 222.528C238.588 221.907 238.87 221.183 239.49 220.908L239.492 220.912Z" fill="#E1C0B5"/>
<path d="M255.064 228.421C254.645 228.19 253.049 227.385 250.689 227.065C250.542 227.542 250.113 227.899 249.585 227.928C248.908 227.965 248.328 227.448 248.291 226.77C248.254 226.093 248.771 225.513 249.45 225.476C250.046 225.442 250.566 225.841 250.707 226.399C252.579 226.641 253.993 227.176 254.789 227.542C253.968 224.991 252.84 222.207 251.303 219.612C251.185 219.658 251.059 219.686 250.927 219.695C250.25 219.732 249.67 219.215 249.633 218.536C249.596 217.86 250.113 217.279 250.791 217.242C251.468 217.206 252.049 217.722 252.085 218.401C252.103 218.703 252.006 218.987 251.836 219.212C252.574 220.453 253.221 221.738 253.786 223.02C253.91 221.868 254.183 220.166 254.775 218.572C254.515 218.361 254.339 218.046 254.32 217.685C254.283 217.009 254.8 216.428 255.479 216.392C256.156 216.355 256.736 216.871 256.773 217.55C256.81 218.229 256.293 218.807 255.614 218.844C255.537 218.848 255.459 218.844 255.385 218.835C254.508 221.225 254.366 223.937 254.348 224.358C255.501 227.243 256.256 230.038 256.736 232.229C257.597 236.165 257.784 239.056 257.785 239.086L257.124 239.126C257.124 239.098 256.94 236.257 256.089 232.371C255.832 231.202 255.498 229.859 255.064 228.422V228.421Z" fill="#E1C0B5"/>
<path d="M284.507 57.2343C286.445 57.2343 288.016 55.6626 288.016 53.7251C288.016 55.6626 289.588 57.2343 291.526 57.2343C289.588 57.2343 288.016 58.8061 288.016 60.7436C288.016 58.8061 286.445 57.2343 284.507 57.2343Z" fill="white"/>
<path d="M406.091 79.6259C408.029 79.6259 409.6 78.0542 409.6 76.1167C409.6 78.0542 411.172 79.6259 413.11 79.6259C411.172 79.6259 409.6 81.1977 409.6 83.1352C409.6 81.1977 408.029 79.6259 406.091 79.6259Z" fill="white"/>
<path d="M299.021 196.307C300.958 196.307 302.53 194.735 302.53 192.797C302.53 194.735 304.102 196.307 306.039 196.307C304.102 196.307 302.53 197.878 302.53 199.816C302.53 197.878 300.958 196.307 299.021 196.307Z" fill="white"/>
<path d="M214.957 189.652C216.895 189.652 218.466 188.08 218.466 186.143C218.466 188.08 220.038 189.652 221.976 189.652C220.038 189.652 218.466 191.224 218.466 193.161C218.466 191.224 216.895 189.652 214.957 189.652Z" fill="white"/>
<path d="M268.941 84.4222C272.415 84.4222 275.23 81.6074 275.23 78.1333C275.23 81.6074 278.044 84.4222 281.518 84.4222C278.044 84.4222 275.23 87.2369 275.23 90.711C275.23 87.2369 272.415 84.4222 268.941 84.4222Z" fill="white"/>
<path d="M328.953 214.887C332.427 214.887 335.242 212.072 335.242 208.598C335.242 212.072 338.057 214.887 341.531 214.887C338.057 214.887 335.242 217.702 335.242 221.176C335.242 217.702 332.427 214.887 328.953 214.887Z" fill="white"/>
<path d="M143.473 156.383C146.947 156.383 149.762 153.568 149.762 150.094C149.762 153.568 152.577 156.383 156.051 156.383C152.577 156.383 149.762 159.198 149.762 162.672C149.762 159.198 146.947 156.383 143.473 156.383Z" fill="white"/>
</svg>
